<svg width="250" height="250" viewBox="0 0 250 250" fill="none" xmlns="http://www.w3.org/2000/svg">
<g clip-path="url(#clip0_3_41)">
<circle cx="125" cy="125" r="115" fill="white" stroke="#2563EB" stroke-width="20"/>
<path d="M83.9859 105.772H98.2296L125 174.678L151.707 105.772H165.95L130.596 195.11H119.277L83.9859 105.772ZM77.5 105.772H91.0442L93.3969 165.413V195.11H77.5V105.772ZM158.892 105.772H172.5V195.11H156.539V165.413L158.892 105.772Z" fill="#2563EB"/>
<path d="M148.438 64.5152C148.438 77.3595 137.939 87.7803 125 87.7803C112.061 87.7803 101.562 77.3595 101.562 64.5152C101.562 51.6709 112.061 41.25 125 41.25C137.939 41.25 148.438 51.6709 148.438 64.5152ZM121.094 101.352V165.331L109.277 159.466C104.175 156.946 98.6572 155.346 92.9688 154.789L69.5312 152.462C65.5518 152.05 62.5 148.73 62.5 144.732V95.5354C62.5 91.2459 65.9912 87.7803 70.3125 87.7803H77.71C93.2373 87.7803 108.374 92.5303 121.094 101.352ZM128.906 165.331V101.352C141.626 92.5303 156.763 87.7803 172.29 87.7803H179.688C184.009 87.7803 187.5 91.2459 187.5 95.5354V144.732C187.5 148.706 184.448 152.05 180.469 152.438L157.031 154.765C151.367 155.322 145.825 156.921 140.723 159.442L128.906 165.331Z" fill="#2563EB"/>
<path d="M180 195.11C180 201.963 174.404 207.518 167.5 207.518C160.596 207.518 155 201.963 155 195.11C155 188.257 160.596 182.702 167.5 182.702C174.404 182.702 180 188.257 180 195.11Z" fill="#2563EB"/>
<path d="M145 191.388C145 201.667 136.605 210 126.25 210C115.895 210 107.5 201.667 107.5 191.388C107.5 181.109 115.895 172.776 126.25 172.776C136.605 172.776 145 181.109 145 191.388Z" fill="#2563EB"/>
<path d="M95 195.11C95 201.963 89.4036 207.518 82.5 207.518C75.5964 207.518 70 201.963 70 195.11C70 188.257 75.5964 182.702 82.5 182.702C89.4036 182.702 95 188.257 95 195.11Z" fill="#2563EB"/>
</g>
<defs>
<clipPath id="clip0_3_41">
<rect width="250" height="250" fill="white"/>
</clipPath>
</defs>
</svg>
